<svg xmlns="http://www.w3.org/2000/svg" width="1200" height="630" viewBox="0 0 1200 630" role="img" aria-labelledby="title description">
  <title id="title">FreeFinder Pro</title>
  <desc id="description">Karte, Empfehlungen, Tagesdeal und Sparstatistiken. Monatlich oder jährlich in der App.</desc>
  <defs>
    <linearGradient id="brand" x1="0" y1="0" x2="1" y2="1">
      <stop stop-color="#ff941f"/>
      <stop offset="1" stop-color="#ff4545"/>
    </linearGradient>
  </defs>
  <rect width="1200" height="630" fill="#0b1428"/>
  <circle cx="1130" cy="70" r="300" fill="#ff941f" opacity=".08"/>
  <rect x="70" y="70" width="82" height="82" rx="22" fill="url(#brand)"/>
  <path d="M92 111h39v28H92v-28Zm-6-14h51v14H86V97Zm25 0v42M99 97c-20-3-18-21-7-21 10 0 16 11 19 21m0 0c4-11 9-21 19-21 12 0 13 18-19 21" fill="none" stroke="#fff" stroke-width="5" stroke-linecap="round" stroke-linejoin="round"/>
  <text x="178" y="128" fill="#fff" font-family="Arial, sans-serif" font-size="44" font-weight="700">FreeFinder</text>
  <text x="70" y="285" fill="#fff" font-family="Arial, sans-serif" font-size="88" font-weight="700">Mehr Überblick.</text>
  <text x="70" y="391" fill="#ff941f" font-family="Arial, sans-serif" font-size="88" font-weight="700">Mit Pro.</text>
  <text x="74" y="472" fill="#d4dbea" font-family="Arial, sans-serif" font-size="30">Karte · Empfehlungen · Tagesdeal · Sparstatistiken</text>
  <text x="74" y="548" fill="#d4dbea" font-family="Arial, sans-serif" font-size="27">Monatlich oder jährlich. In der App für iPhone und Android.</text>
</svg>
