<svg xmlns="http://www.w3.org/2000/svg" viewBox="0 0 1200 630">
  <defs>
    <linearGradient id="brand" x1="0" y1="0" x2="1" y2="1">
      <stop stop-color="#ff941f"/>
      <stop offset="1" stop-color="#ff4545"/>
    </linearGradient>
    <filter id="shadow" x="-20%" y="-20%" width="140%" height="140%">
      <feDropShadow dx="0" dy="24" stdDeviation="24" flood-color="#121418" flood-opacity=".14"/>
    </filter>
  </defs>
  <rect width="1200" height="630" fill="#fff"/>
  <rect x="760" y="84" width="520" height="620" rx="44" fill="url(#brand)" opacity=".92" transform="skewX(-5)"/>
  <rect x="68" y="58" width="74" height="74" rx="20" fill="url(#brand)"/>
  <path d="M89 93h32v31H89V93Zm-7-14h46v20H82V79Zm23 0v45M91 69c0-8 10-11 16-6l-2 16h-7c-4 0-7-4-7-10Zm28 0c0-8-10-11-16-6l2 16h7c4 0 7-4 7-10Z" fill="none" stroke="#fff" stroke-width="6" stroke-linecap="round" stroke-linejoin="round"/>
  <text x="162" y="108" fill="#151414" font-family="Arial, sans-serif" font-size="42" font-weight="800">FreeFinder</text>
  <text x="70" y="252" fill="#151414" font-family="Arial, sans-serif" font-size="78" font-weight="900">Täglich kostenlose</text>
  <text x="70" y="344" fill="#151414" font-family="Arial, sans-serif" font-size="78" font-weight="900">Angebote in Wien.</text>
  <text x="74" y="426" fill="#4d5563" font-family="Arial, sans-serif" font-size="32" font-weight="500">Gratis-Deals, Rabatte und lokale Highlights</text>
  <text x="74" y="492" fill="#4d5563" font-family="Arial, sans-serif" font-size="32" font-weight="500">schneller öffnen und speichern.</text>
  <g filter="url(#shadow)">
    <rect x="760" y="128" width="240" height="430" rx="42" fill="#111"/>
    <rect x="774" y="142" width="212" height="402" rx="32" fill="#fff"/>
    <rect x="818" y="156" width="126" height="28" rx="14" fill="#000"/>
    <text x="804" y="236" fill="#151414" font-family="Arial, sans-serif" font-size="36" font-weight="900">Deals</text>
    <rect x="804" y="268" width="152" height="104" rx="20" fill="url(#brand)" opacity=".88"/>
    <text x="824" y="314" fill="#fff" font-family="Arial, sans-serif" font-size="20" font-weight="900">DEAL DES</text>
    <text x="824" y="340" fill="#fff" font-family="Arial, sans-serif" font-size="20" font-weight="900">TAGES</text>
    <rect x="804" y="398" width="152" height="46" rx="23" fill="#071634"/>
    <text x="836" y="428" fill="#fff" font-family="Arial, sans-serif" font-size="16" font-weight="800">Öffnen</text>
    <rect x="804" y="468" width="152" height="40" rx="14" fill="#fff7ee" stroke="#eadfd2"/>
  </g>
</svg>
